<?xml version="1.0" encoding="UTF-8" standalone="no"?>
<svg
   xmlns:dc="http://purl.org/dc/elements/1.1/"
   xmlns:cc="http://creativecommons.org/ns#"
   xmlns:rdf="http://www.w3.org/1999/02/22-rdf-syntax-ns#"
   xmlns:svg="http://www.w3.org/2000/svg"
   xmlns="http://www.w3.org/2000/svg"
   aria-hidden="true"
   focusable="false"
   viewBox="0 0 512 416"
   version="1.1"
   id="svg5">
  <metadata
     id="metadata10">
    <rdf:RDF>
      <cc:Work
         rdf:about="">
        <dc:format>image/svg+xml</dc:format>
        <dc:type
           rdf:resource="http://purl.org/dc/dcmitype/StillImage" />
        <dc:title></dc:title>
      </cc:Work>
    </rdf:RDF>
  </metadata>
  <defs
     id="defs8" />
  <path
     d="M 48,0 A 48,48 0 1 0 96,48 48,48 0 0 0 48,0 Z m 0,160 a 48,48 0 1 0 48,48 48,48 0 0 0 -48,-48 z m 0,160 a 48,48 0 1 0 48,48 48,48 0 0 0 -48,-48 z m 448,16 H 176 a 16,16 0 0 0 -16,16 v 32 a 16,16 0 0 0 16,16 h 320 a 16,16 0 0 0 16,-16 V 352 A 16,16 0 0 0 496,336 Z M 496,16 H 176 a 16,16 0 0 0 -16,16 v 32 a 16,16 0 0 0 16,16 H 496 A 16,16 0 0 0 512,64 V 32 A 16,16 0 0 0 496,16 Z m 0,160 H 176 a 16,16 0 0 0 -16,16 v 32 a 16,16 0 0 0 16,16 h 320 a 16,16 0 0 0 16,-16 v -32 a 16,16 0 0 0 -16,-16 z"
     id="path2" />
</svg>
